<?xml version="1.0" standalone="no"?><!DOCTYPE svg PUBLIC "-//W3C//DTD SVG 1.1//EN" "http://www.w3.org/Graphics/SVG/1.1/DTD/svg11.dtd"><svg t="1762497540036" class="icon" viewBox="0 0 1024 1024" version="1.1" xmlns="http://www.w3.org/2000/svg" p-id="4865" xmlns:xlink="http://www.w3.org/1999/xlink" width="200" height="200"><path d="M751.831579 102.4c0-61.978947-199.410526-67.368421-239.831579-67.368421s-239.831579 2.694737-239.831579 67.368421v595.536842c0 29.642105 45.810526 45.810526 97.010526 56.589474v215.578947c0 10.778947 8.084211 18.863158 18.863158 18.863158s18.863158-8.084211 18.863158-18.863158v-210.189474c45.810526 5.389474 88.926316 5.389474 105.094737 5.389474 16.168421 0 59.284211 0 105.094737-5.389474V970.105263c0 10.778947 8.084211 18.863158 18.863158 18.863158s18.863158-8.084211 18.863158-18.863158v-215.578947c51.2-8.084211 97.010526-24.252632 97.010526-56.589474V102.4zM512 72.757895c113.178947 0 180.547368 16.168421 196.715789 29.642105-18.863158 10.778947-86.231579 29.642105-196.715789 29.642105s-180.547368-16.168421-196.715789-29.642105c16.168421-13.473684 83.536842-29.642105 196.715789-29.642105z m202.105263 67.368421v517.389473c-59.284211-24.252632-172.463158-26.947368-202.105263-26.947368-29.642105 0-142.821053 2.694737-202.105263 26.947368V140.126316c59.284211 24.252632 172.463158 26.947368 202.105263 26.947368 29.642105 0 142.821053 0 202.105263-26.947368zM512 727.578947c-113.178947 0-180.547368-16.168421-196.715789-29.642105 18.863158-10.778947 86.231579-29.642105 196.715789-29.642105 113.178947 0 180.547368 16.168421 196.715789 29.642105-16.168421 10.778947-83.536842 29.642105-196.715789 29.642105z" fill="#13227a" p-id="4866"></path></svg>