<?xml version="1.0" standalone="no"?><!DOCTYPE svg PUBLIC "-//W3C//DTD SVG 1.1//EN" "http://www.w3.org/Graphics/SVG/1.1/DTD/svg11.dtd"><svg t="1762498623840" class="icon" viewBox="0 0 1024 1024" version="1.1" xmlns="http://www.w3.org/2000/svg" p-id="8464" xmlns:xlink="http://www.w3.org/1999/xlink" width="200" height="200"><path d="M242.29948788 73.80482907c13.25055084-9.81522284 30.04548771-11.66920938 46.07701834-11.23297727 156.28015927 0.43623214 312.56031855-0.3271741 468.84047782 0.38170313 32.17211931-0.21811605 59.60021427 29.60925558 57.96434378 61.45420079-0.16358706 121.70876326 0.54529015 243.4175265-0.38170309 365.07176077-0.27264508 25.79222448-37.02520173 20.72102601-42.09640022 43.84132869-3.435328 13.25055084 0.27264508 30.97248097 14.06848608 36.80708566 10.79674513 5.56195962 25.95581151 9.92428088 27.75526904 24.15635399 1.69039949 21.70254829 0.81793525 43.56868362 0.43623213 65.32576092-0.21811605 28.46414625-23.66559286 54.63807382-52.18426812 56.98282151-21.32084518 1.79945752-42.69621938 0.21811605-64.01706454 0.59981918-0.21811605 81.13917551 0.05452902 162.33288002-0.10905803 243.47205552-17.66740112 0-35.28027322-0.05452902-52.89314533 0 0-81.13917551 0.16358706-162.33288002 0-243.52658454-86.26490299 0.27264508-172.47527696 0.16358706-258.74017994 0.05452902-0.70887721 81.19370452 1.19963835 162.38740904-0.98152229 243.52658455-17.34022703-0.10905804-34.68045404-0.10905804-51.96615205 0.05452902-0.16358706-81.19370452-0.16358706-162.44193806 0.05452902-243.63564259-32.55382243-2.18116065-71.48753972 8.88822958-97.93411237-15.97700162-27.37356593-26.28298561-17.88551718-67.9976827-18.59439439-101.91473053-1.14510934-16.03153065 13.95942804-23.01124467 26.28298561-28.19150117 17.231169-6.48895288 20.72102601-29.50019755 13.03243478-44.44114787-7.52500418-14.77736328-29.66378459-12.48714462-36.69802764-27.80979806-3.65344405-11.50562234-2.83550883-23.77465089-3.21721193-35.60744732 0.27264508-110.91201812-0.16358706-221.82403626 0.21811607-332.73605438-0.87246424-21.37537419 6.43442386-44.49567688 25.08334727-56.6556474m41.82375511 55.29242201c-0.10905804 110.69390207-0.81793525 221.33327511 0.38170311 331.97264817 36.80708566 24.42899908 51.74803598 74.32304853 37.13425975 115.54698447-5.83460469 20.83008402-21.48443221 36.47991157-37.67954991 49.78499142 0 8.07029434 0.05452902 16.14058867 0.10905803 24.26541202 38.17031106-0.16358706 76.34062211-0.05452902 114.51093317-0.10905802-0.3271741-173.78397334-0.10905804-347.56794668-0.10905803-521.35192003-38.11578203 0.10905804-76.23156409 0-114.34734612-0.10905803z" p-id="8465" fill="#d81e06"></path></svg>